<mxfile host="Electron" modified="2023-07-07T19:18:39.382Z" agent="Mozilla/5.0 (Macintosh; Intel Mac OS X 10_15_7) AppleWebKit/537.36 (KHTML, like Gecko) draw.io/21.6.1 Chrome/112.0.5615.204 Electron/24.6.1 Safari/537.36" etag="SrWzCos3Uok3ss4s8Atq" version="21.6.1" type="device">
  <diagram name="Page-1" id="RakZSXlbpBYCQhtgbR__">
    <mxGraphModel dx="1434" dy="854" grid="1" gridSize="10" guides="1" tooltips="1" connect="1" arrows="1" fold="1" page="1" pageScale="1" pageWidth="827" pageHeight="1169" math="0" shadow="0">
      <root>
        <mxCell id="0" />
        <mxCell id="1" parent="0" />
        <mxCell id="fHoVDK6G58x63X8vGbju-1" value="" style="shape=hexagon;perimeter=hexagonPerimeter2;whiteSpace=wrap;html=1;fixedSize=1;size=67.5;rotation=90;sketch=1;curveFitting=1;jiggle=2;" vertex="1" parent="1">
          <mxGeometry x="239.94" y="157.43" width="300" height="306.25" as="geometry" />
        </mxCell>
        <mxCell id="fHoVDK6G58x63X8vGbju-12" value="&lt;font style=&quot;font-size: 16px;&quot;&gt;input port&lt;/font&gt;" style="rounded=0;whiteSpace=wrap;html=1;rotation=25;sketch=1;curveFitting=1;jiggle=2;fontFamily=Comic Sans MS;fontSize=16;" vertex="1" parent="1">
          <mxGeometry x="242.5" y="400" width="127.5" height="50" as="geometry" />
        </mxCell>
        <mxCell id="fHoVDK6G58x63X8vGbju-13" value="" style="shape=hexagon;perimeter=hexagonPerimeter2;whiteSpace=wrap;html=1;fixedSize=1;size=38.680000000000064;rotation=90;fillColor=#e1d5e7;strokeColor=#9673a6;gradientColor=#FFFFFF;sketch=1;curveFitting=1;jiggle=2;" vertex="1" parent="1">
          <mxGeometry x="301.32" y="231.49" width="182.35" height="158.13" as="geometry" />
        </mxCell>
        <mxCell id="fHoVDK6G58x63X8vGbju-16" value="" style="endArrow=none;html=1;rounded=0;exitX=0;exitY=0.5;exitDx=0;exitDy=0;entryX=0;entryY=0.5;entryDx=0;entryDy=0;sketch=1;curveFitting=1;jiggle=2;" edge="1" parent="1" source="fHoVDK6G58x63X8vGbju-13" target="fHoVDK6G58x63X8vGbju-1">
          <mxGeometry width="50" height="50" relative="1" as="geometry">
            <mxPoint x="360" y="230" as="sourcePoint" />
            <mxPoint x="392" y="180" as="targetPoint" />
          </mxGeometry>
        </mxCell>
        <mxCell id="fHoVDK6G58x63X8vGbju-17" value="" style="endArrow=none;html=1;rounded=0;exitX=0;exitY=0.5;exitDx=0;exitDy=0;entryX=1;entryY=0.5;entryDx=0;entryDy=0;sketch=1;curveFitting=1;jiggle=2;" edge="1" parent="1" target="fHoVDK6G58x63X8vGbju-13">
          <mxGeometry width="50" height="50" relative="1" as="geometry">
            <mxPoint x="392" y="461.5" as="sourcePoint" />
            <mxPoint x="392" y="388.5" as="targetPoint" />
          </mxGeometry>
        </mxCell>
        <mxCell id="fHoVDK6G58x63X8vGbju-18" value="&lt;font style=&quot;font-size: 16px;&quot;&gt;input port&lt;/font&gt;" style="rounded=0;whiteSpace=wrap;html=1;rotation=338;sketch=1;curveFitting=1;jiggle=2;fontFamily=Comic Sans MS;fontSize=16;" vertex="1" parent="1">
          <mxGeometry x="239.94" y="171.96" width="137.5" height="47.76" as="geometry" />
        </mxCell>
        <mxCell id="fHoVDK6G58x63X8vGbju-19" value="&lt;font style=&quot;font-size: 16px;&quot;&gt;output port&lt;/font&gt;" style="rounded=0;whiteSpace=wrap;html=1;rotation=338;sketch=1;curveFitting=1;jiggle=2;fontFamily=Comic Sans MS;fontSize=16;" vertex="1" parent="1">
          <mxGeometry x="405" y="402.24" width="137.5" height="47.76" as="geometry" />
        </mxCell>
        <mxCell id="fHoVDK6G58x63X8vGbju-20" value="&lt;font style=&quot;font-size: 16px;&quot;&gt;output port&lt;/font&gt;" style="rounded=0;whiteSpace=wrap;html=1;rotation=25;sketch=1;curveFitting=1;jiggle=2;fontFamily=Comic Sans MS;fontSize=16;" vertex="1" parent="1">
          <mxGeometry x="405" y="171.96" width="137.5" height="47.76" as="geometry" />
        </mxCell>
        <mxCell id="fHoVDK6G58x63X8vGbju-21" value="&lt;h1&gt;&lt;font style=&quot;font-size: 24px;&quot;&gt;API&lt;/font&gt;&lt;/h1&gt;" style="text;html=1;strokeColor=none;fillColor=none;align=center;verticalAlign=middle;whiteSpace=wrap;rounded=0;fontFamily=Comic Sans MS;sketch=1;curveFitting=1;jiggle=2;" vertex="1" parent="1">
          <mxGeometry x="241.25" y="290.56" width="67.5" height="40" as="geometry" />
        </mxCell>
        <mxCell id="fHoVDK6G58x63X8vGbju-22" value="&lt;h1&gt;&lt;font style=&quot;font-size: 24px;&quot;&gt;SPI&lt;/font&gt;&lt;/h1&gt;" style="text;html=1;strokeColor=none;fillColor=none;align=center;verticalAlign=middle;whiteSpace=wrap;rounded=0;fontFamily=Comic Sans MS;sketch=1;curveFitting=1;jiggle=2;" vertex="1" parent="1">
          <mxGeometry x="475" y="290.56" width="67.5" height="40" as="geometry" />
        </mxCell>
        <mxCell id="fHoVDK6G58x63X8vGbju-24" value="&lt;h1&gt;&lt;font style=&quot;font-size: 18px;&quot;&gt;Domain&lt;/font&gt;&lt;/h1&gt;" style="text;html=1;strokeColor=none;fillColor=none;align=center;verticalAlign=middle;whiteSpace=wrap;rounded=0;fontFamily=Comic Sans MS;sketch=1;curveFitting=1;jiggle=2;" vertex="1" parent="1">
          <mxGeometry x="358.74" y="290.56" width="67.5" height="40" as="geometry" />
        </mxCell>
        <mxCell id="fHoVDK6G58x63X8vGbju-27" value="" style="shape=datastore;whiteSpace=wrap;html=1;fillColor=#e1d5e7;strokeColor=#9673a6;gradientColor=#FFFFFF;sketch=1;curveFitting=1;jiggle=2;" vertex="1" parent="1">
          <mxGeometry x="730" y="80" width="60" height="60" as="geometry" />
        </mxCell>
        <mxCell id="fHoVDK6G58x63X8vGbju-28" value="&lt;font style=&quot;font-size: 14px;&quot;&gt;persistence&lt;br&gt;adapter&lt;/font&gt;" style="rounded=0;whiteSpace=wrap;html=1;dashed=1;fillColor=#f5f5f5;fontColor=#333333;strokeColor=#666666;fontFamily=Comic Sans MS;sketch=1;curveFitting=1;jiggle=2;" vertex="1" parent="1">
          <mxGeometry x="520" y="80" width="110" height="60" as="geometry" />
        </mxCell>
        <mxCell id="fHoVDK6G58x63X8vGbju-30" value="" style="endArrow=classic;html=1;rounded=0;entryX=0;entryY=0.5;entryDx=0;entryDy=0;exitX=0.5;exitY=0;exitDx=0;exitDy=0;strokeWidth=2;sketch=1;curveFitting=1;jiggle=2;" edge="1" parent="1" source="fHoVDK6G58x63X8vGbju-20" target="fHoVDK6G58x63X8vGbju-28">
          <mxGeometry width="50" height="50" relative="1" as="geometry">
            <mxPoint x="450" y="120" as="sourcePoint" />
            <mxPoint x="500" y="70" as="targetPoint" />
          </mxGeometry>
        </mxCell>
        <mxCell id="fHoVDK6G58x63X8vGbju-31" value="" style="endArrow=classic;html=1;rounded=0;entryX=0;entryY=0.5;entryDx=0;entryDy=0;strokeWidth=2;sketch=1;curveFitting=1;jiggle=2;" edge="1" parent="1" source="fHoVDK6G58x63X8vGbju-28" target="fHoVDK6G58x63X8vGbju-27">
          <mxGeometry width="50" height="50" relative="1" as="geometry">
            <mxPoint x="494" y="184" as="sourcePoint" />
            <mxPoint x="553" y="120" as="targetPoint" />
          </mxGeometry>
        </mxCell>
        <mxCell id="fHoVDK6G58x63X8vGbju-32" value="&lt;span style=&quot;font-size: 14px;&quot;&gt;HTTP&lt;br&gt;&lt;/span&gt;adapter" style="rounded=0;whiteSpace=wrap;html=1;dashed=1;fillColor=#f5f5f5;fontColor=#333333;strokeColor=#666666;fontFamily=Comic Sans MS;sketch=1;curveFitting=1;jiggle=2;" vertex="1" parent="1">
          <mxGeometry x="150" y="80" width="89.94" height="60" as="geometry" />
        </mxCell>
        <mxCell id="fHoVDK6G58x63X8vGbju-33" value="" style="endArrow=classic;html=1;rounded=0;entryX=0.5;entryY=0;entryDx=0;entryDy=0;exitX=1;exitY=0.5;exitDx=0;exitDy=0;strokeWidth=2;sketch=1;curveFitting=1;jiggle=2;" edge="1" parent="1" source="fHoVDK6G58x63X8vGbju-32" target="fHoVDK6G58x63X8vGbju-18">
          <mxGeometry width="50" height="50" relative="1" as="geometry">
            <mxPoint x="494" y="184" as="sourcePoint" />
            <mxPoint x="553" y="120" as="targetPoint" />
          </mxGeometry>
        </mxCell>
        <mxCell id="fHoVDK6G58x63X8vGbju-34" value="" style="shape=cylinder3;whiteSpace=wrap;html=1;boundedLbl=1;backgroundOutline=1;size=7;rotation=90;fillColor=#e1d5e7;strokeColor=#9673a6;gradientColor=#FFFFFF;sketch=1;curveFitting=1;jiggle=2;" vertex="1" parent="1">
          <mxGeometry x="49.5" y="485.5" width="30" height="109" as="geometry" />
        </mxCell>
        <mxCell id="fHoVDK6G58x63X8vGbju-36" value="" style="endArrow=none;html=1;entryX=0;entryY=0;entryDx=0;entryDy=74.25;entryPerimeter=0;exitX=1;exitY=0;exitDx=0;exitDy=74.25;exitPerimeter=0;curved=1;sketch=1;curveFitting=1;jiggle=2;" edge="1" parent="1" source="fHoVDK6G58x63X8vGbju-34" target="fHoVDK6G58x63X8vGbju-34">
          <mxGeometry width="50" height="50" relative="1" as="geometry">
            <mxPoint y="611" as="sourcePoint" />
            <mxPoint x="50" y="561" as="targetPoint" />
            <Array as="points">
              <mxPoint x="40" y="540" />
            </Array>
          </mxGeometry>
        </mxCell>
        <mxCell id="fHoVDK6G58x63X8vGbju-38" value="" style="endArrow=none;html=1;entryX=0;entryY=0;entryDx=0;entryDy=74.25;entryPerimeter=0;exitX=1;exitY=0;exitDx=0;exitDy=74.25;exitPerimeter=0;curved=1;sketch=1;curveFitting=1;jiggle=2;" edge="1" parent="1">
          <mxGeometry width="50" height="50" relative="1" as="geometry">
            <mxPoint x="72" y="555" as="sourcePoint" />
            <mxPoint x="72" y="525" as="targetPoint" />
            <Array as="points">
              <mxPoint x="67" y="540" />
            </Array>
          </mxGeometry>
        </mxCell>
        <mxCell id="fHoVDK6G58x63X8vGbju-39" value="&lt;span style=&quot;font-size: 14px;&quot;&gt;KAFKA&lt;br&gt;adapter&lt;br&gt;&lt;/span&gt;" style="rounded=0;whiteSpace=wrap;html=1;dashed=1;fillColor=#f5f5f5;fontColor=#333333;strokeColor=#666666;fontFamily=Comic Sans MS;sketch=1;curveFitting=1;jiggle=2;" vertex="1" parent="1">
          <mxGeometry x="160" y="510" width="90" height="60" as="geometry" />
        </mxCell>
        <mxCell id="fHoVDK6G58x63X8vGbju-40" value="&lt;span style=&quot;font-size: 14px;&quot;&gt;KAFKA&lt;br&gt;adapter&lt;br&gt;&lt;/span&gt;" style="rounded=0;whiteSpace=wrap;html=1;dashed=1;fillColor=#f5f5f5;fontColor=#333333;strokeColor=#666666;fontFamily=Comic Sans MS;sketch=1;curveFitting=1;jiggle=2;" vertex="1" parent="1">
          <mxGeometry x="520" y="510" width="100" height="60" as="geometry" />
        </mxCell>
        <mxCell id="fHoVDK6G58x63X8vGbju-41" value="" style="endArrow=classic;html=1;rounded=0;entryX=0;entryY=0.5;entryDx=0;entryDy=0;exitX=0.5;exitY=0;exitDx=0;exitDy=0;strokeWidth=2;exitPerimeter=0;sketch=1;curveFitting=1;jiggle=2;" edge="1" parent="1" source="fHoVDK6G58x63X8vGbju-34" target="fHoVDK6G58x63X8vGbju-39">
          <mxGeometry width="50" height="50" relative="1" as="geometry">
            <mxPoint x="140" y="570" as="sourcePoint" />
            <mxPoint x="200" y="634" as="targetPoint" />
          </mxGeometry>
        </mxCell>
        <mxCell id="fHoVDK6G58x63X8vGbju-42" value="" style="endArrow=classic;html=1;rounded=0;exitX=1;exitY=0.5;exitDx=0;exitDy=0;strokeWidth=2;entryX=0.5;entryY=1;entryDx=0;entryDy=0;sketch=1;curveFitting=1;jiggle=2;" edge="1" parent="1" source="fHoVDK6G58x63X8vGbju-39" target="fHoVDK6G58x63X8vGbju-12">
          <mxGeometry width="50" height="50" relative="1" as="geometry">
            <mxPoint x="308.75" y="530" as="sourcePoint" />
            <mxPoint x="290" y="510" as="targetPoint" />
          </mxGeometry>
        </mxCell>
        <mxCell id="fHoVDK6G58x63X8vGbju-44" value="" style="endArrow=classic;html=1;rounded=0;exitX=0.5;exitY=1;exitDx=0;exitDy=0;strokeWidth=2;entryX=0;entryY=0.5;entryDx=0;entryDy=0;sketch=1;curveFitting=1;jiggle=2;" edge="1" parent="1" source="fHoVDK6G58x63X8vGbju-19" target="fHoVDK6G58x63X8vGbju-40">
          <mxGeometry width="50" height="50" relative="1" as="geometry">
            <mxPoint x="260" y="550" as="sourcePoint" />
            <mxPoint x="306" y="458" as="targetPoint" />
          </mxGeometry>
        </mxCell>
        <mxCell id="fHoVDK6G58x63X8vGbju-46" value="" style="shape=cylinder3;whiteSpace=wrap;html=1;boundedLbl=1;backgroundOutline=1;size=7;rotation=90;fillColor=#e1d5e7;strokeColor=#9673a6;gradientColor=#FFFFFF;sketch=1;curveFitting=1;jiggle=2;" vertex="1" parent="1">
          <mxGeometry x="719.5" y="485.5" width="30" height="109" as="geometry" />
        </mxCell>
        <mxCell id="fHoVDK6G58x63X8vGbju-47" value="" style="endArrow=none;html=1;entryX=0;entryY=0;entryDx=0;entryDy=74.25;entryPerimeter=0;exitX=1;exitY=0;exitDx=0;exitDy=74.25;exitPerimeter=0;curved=1;sketch=1;curveFitting=1;jiggle=2;" edge="1" source="fHoVDK6G58x63X8vGbju-46" target="fHoVDK6G58x63X8vGbju-46" parent="1">
          <mxGeometry width="50" height="50" relative="1" as="geometry">
            <mxPoint x="670" y="611" as="sourcePoint" />
            <mxPoint x="720" y="561" as="targetPoint" />
            <Array as="points">
              <mxPoint x="710" y="540" />
            </Array>
          </mxGeometry>
        </mxCell>
        <mxCell id="fHoVDK6G58x63X8vGbju-48" value="" style="endArrow=none;html=1;entryX=0;entryY=0;entryDx=0;entryDy=74.25;entryPerimeter=0;exitX=1;exitY=0;exitDx=0;exitDy=74.25;exitPerimeter=0;curved=1;sketch=1;curveFitting=1;jiggle=2;" edge="1" parent="1">
          <mxGeometry width="50" height="50" relative="1" as="geometry">
            <mxPoint x="742" y="555" as="sourcePoint" />
            <mxPoint x="742" y="525" as="targetPoint" />
            <Array as="points">
              <mxPoint x="737" y="540" />
            </Array>
          </mxGeometry>
        </mxCell>
        <mxCell id="fHoVDK6G58x63X8vGbju-49" value="" style="endArrow=classic;html=1;rounded=0;exitX=1;exitY=0.5;exitDx=0;exitDy=0;strokeWidth=2;entryX=0.5;entryY=1;entryDx=0;entryDy=0;entryPerimeter=0;sketch=1;curveFitting=1;jiggle=2;" edge="1" parent="1" source="fHoVDK6G58x63X8vGbju-40" target="fHoVDK6G58x63X8vGbju-46">
          <mxGeometry width="50" height="50" relative="1" as="geometry">
            <mxPoint x="620" y="550" as="sourcePoint" />
            <mxPoint x="657" y="642" as="targetPoint" />
          </mxGeometry>
        </mxCell>
      </root>
    </mxGraphModel>
  </diagram>
</mxfile>
